Leke0.63cleaned.ufo
<glyph name="ampersand" format="2">
  <advance width="1618"/>
  <unicode hex="0026"/>
  <outline>
    <contour>
      <point x="490" y="779" type="line"/>
      <point x="398" y="716"/>
      <point x="324" y="628"/>
      <point x="324" y="492" type="curve" smooth="yes"/>
      <point x="324" y="283"/>
      <point x="472" y="131"/>
      <point x="660" y="131" type="curve" smooth="yes"/>
      <point x="800" y="131"/>
      <point x="890" y="193"/>
      <point x="967" y="260" type="curve"/>
    </contour>
    <contour>
      <point x="840" y="1227" type="curve" smooth="yes"/>
      <point x="840" y="1359"/>
      <point x="769" y="1477"/>
      <point x="623" y="1477" type="curve" smooth="yes"/>
      <point x="495" y="1477"/>
      <point x="415" y="1380"/>
      <point x="415" y="1260" type="curve" smooth="yes"/>
      <point x="415" y="1104"/>
      <point x="547" y="997"/>
      <point x="629" y="915" type="curve"/>
      <point x="763" y="981"/>
      <point x="840" y="1074"/>
    </contour>
    <contour>
      <point x="1146" y="8" type="line"/>
      <point x="1146" y="63" type="line"/>
      <point x="1042" y="180" type="line"/>
      <point x="922" y="84"/>
      <point x="787" y="-20"/>
      <point x="572" y="-20" type="curve" smooth="yes"/>
      <point x="306" y="-20"/>
      <point x="90" y="173"/>
      <point x="90" y="439" type="curve" smooth="yes"/>
      <point x="90" y="641"/>
      <point x="219" y="770"/>
      <point x="400" y="845" type="curve"/>
      <point x="349" y="899"/>
      <point x="206" y="1025"/>
      <point x="206" y="1200" type="curve" smooth="yes"/>
      <point x="206" y="1433"/>
      <point x="395" y="1591"/>
      <point x="645" y="1591" type="curve" smooth="yes"/>
      <point x="880" y="1591"/>
      <point x="1053" y="1443"/>
      <point x="1053" y="1242" type="curve" smooth="yes"/>
      <point x="1053" y="1016"/>
      <point x="881" y="913"/>
      <point x="713" y="836" type="curve"/>
      <point x="1102" y="417" type="line"/>
      <point x="1150" y="482"/>
      <point x="1219" y="597"/>
      <point x="1232" y="688" type="curve"/>
      <point x="1233" y="701"/>
      <point x="1212" y="729"/>
      <point x="1192" y="732" type="curve" smooth="yes"/>
      <point x="1067" y="750" type="line"/>
      <point x="1067" y="848" type="line"/>
      <point x="1541" y="848" type="line"/>
      <point x="1541" y="750" type="line"/>
      <point x="1375" y="726" type="line"/>
      <point x="1329" y="567"/>
      <point x="1244" y="429"/>
      <point x="1177" y="335" type="curve"/>
      <point x="1365" y="119" type="line"/>
      <point x="1572" y="107" type="line"/>
      <point x="1572" y="8" type="line"/>
    </contour>
  </outline>
</glyph>
<glyph name="parenleft" format="2">
  <advance width="870"/>
  <unicode hex="0028"/>
  <outline>
    <contour>
      <point x="793" y="-321" type="line"/>
      <point x="310" y="-265"/>
      <point x="137" y="167"/>
      <point x="137" y="675" type="curve" smooth="yes"/>
      <point x="137" y="1178"/>
      <point x="310" y="1614"/>
      <point x="793" y="1667" type="curve"/>
      <point x="793" y="1565" type="line"/>
      <point x="469" y="1512"/>
      <point x="351" y="1188"/>
      <point x="351" y="675" type="curve" smooth="yes"/>
      <point x="351" y="160"/>
      <point x="469" y="-166"/>
      <point x="793" y="-219" type="curve"/>
    </contour>
  </outline>
</glyph>
<glyph name="period" format="2">
  <advance width="647"/>
  <unicode hex="002E"/>
  <outline>
    <contour>
      <point x="453" y="136" type="curve" smooth="yes"/>
      <point x="453" y="49"/>
      <point x="381" y="-20"/>
      <point x="296" y="-20" type="curve" smooth="yes"/>
      <point x="210" y="-20"/>
      <point x="141" y="49"/>
      <point x="141" y="136" type="curve" smooth="yes"/>
      <point x="141" y="220"/>
      <point x="210" y="291"/>
      <point x="296" y="291" type="curve" smooth="yes"/>
      <point x="381" y="291"/>
      <point x="453" y="220"/>
    </contour>
  </outline>
</glyph>
<glyph name="six" format="2">
  <advance width="1303"/>
  <unicode hex="0036"/>
  <outline>
    <contour>
      <point x="974" y="507" type="curve" smooth="yes"/>
      <point x="974" y="735"/>
      <point x="852" y="869"/>
      <point x="647" y="869" type="curve" smooth="yes"/>
      <point x="548" y="869"/>
      <point x="426" y="822"/>
      <point x="336" y="753" type="curve"/>
      <point x="331" y="705"/>
      <point x="331" y="661"/>
      <point x="331" y="626" type="curve" smooth="yes"/>
      <point x="331" y="310"/>
      <point x="426" y="92"/>
      <point x="647" y="92" type="curve" smooth="yes"/>
      <point x="871" y="92"/>
      <point x="974" y="276"/>
    </contour>
    <contour>
      <point x="1210" y="538" type="curve" smooth="yes"/>
      <point x="1210" y="199"/>
      <point x="961" y="-29"/>
      <point x="647" y="-29" type="curve" smooth="yes"/>
      <point x="336" y="-29"/>
      <point x="93" y="166"/>
      <point x="93" y="672" type="curve" smooth="yes"/>
      <point x="93" y="1225"/>
      <point x="430" y="1598"/>
      <point x="1018" y="1598" type="curve"/>
      <point x="1018" y="1454" type="line"/>
      <point x="939" y="1457" type="line"/>
      <point x="645" y="1465"/>
      <point x="390" y="1241"/>
      <point x="342" y="874" type="curve"/>
      <point x="470" y="983"/>
      <point x="600" y="1019"/>
      <point x="729" y="1019" type="curve" smooth="yes"/>
      <point x="1020" y="1019"/>
      <point x="1210" y="813"/>
    </contour>
  </outline>
</glyph>
<glyph name="eight" format="2">
  <advance width="1303"/>
  <unicode hex="0038"/>
  <outline>
    <contour>
      <point x="974" y="392" type="curve" smooth="yes"/>
      <point x="974" y="585"/>
      <point x="808" y="644"/>
      <point x="516" y="761" type="curve"/>
      <point x="400" y="698"/>
      <point x="307" y="608"/>
      <point x="307" y="443" type="curve" smooth="yes"/>
      <point x="307" y="244"/>
      <point x="425" y="96"/>
      <point x="650" y="96" type="curve" smooth="yes"/>
      <point x="849" y="96"/>
      <point x="974" y="238"/>
    </contour>
    <contour>
      <point x="932" y="1179" type="curve" smooth="yes"/>
      <point x="932" y="1369"/>
      <point x="803" y="1480"/>
      <point x="650" y="1480" type="curve" smooth="yes"/>
      <point x="493" y="1480"/>
      <point x="384" y="1355"/>
      <point x="384" y="1216" type="curve" smooth="yes"/>
      <point x="384" y="1054"/>
      <point x="526" y="957"/>
      <point x="764" y="869" type="curve"/>
      <point x="858" y="939"/>
      <point x="932" y="1036"/>
    </contour>
    <contour>
      <point x="1208" y="429" type="curve" smooth="yes"/>
      <point x="1208" y="165"/>
      <point x="969" y="-29"/>
      <point x="650" y="-29" type="curve" smooth="yes"/>
      <point x="309" y="-29"/>
      <point x="93" y="164"/>
      <point x="93" y="425" type="curve" smooth="yes"/>
      <point x="93" y="634"/>
      <point x="252" y="747"/>
      <point x="424" y="811" type="curve"/>
      <point x="296" y="864"/>
      <point x="155" y="979"/>
      <point x="155" y="1163" type="curve" smooth="yes"/>
      <point x="155" y="1428"/>
      <point x="353" y="1598"/>
      <point x="650" y="1598" type="curve" smooth="yes"/>
      <point x="932" y="1598"/>
      <point x="1146" y="1425"/>
      <point x="1146" y="1200" type="curve" smooth="yes"/>
      <point x="1146" y="1005"/>
      <point x="981" y="881"/>
      <point x="863" y="825" type="curve"/>
      <point x="1012" y="772"/>
      <point x="1208" y="665"/>
    </contour>
  </outline>
</glyph>
<glyph name="nine" format="2">
  <advance width="1303"/>
  <unicode hex="0039"/>
  <outline>
    <contour>
      <point x="970" y="943" type="curve" smooth="yes"/>
      <point x="970" y="1259"/>
      <point x="873" y="1477"/>
      <point x="653" y="1477" type="curve" smooth="yes"/>
      <point x="430" y="1477"/>
      <point x="327" y="1294"/>
      <point x="327" y="1061" type="curve" smooth="yes"/>
      <point x="327" y="834"/>
      <point x="448" y="700"/>
      <point x="653" y="700" type="curve" smooth="yes"/>
      <point x="753" y="700"/>
      <point x="874" y="747"/>
      <point x="965" y="816" type="curve"/>
      <point x="969" y="864"/>
      <point x="970" y="908"/>
    </contour>
    <contour>
      <point x="1210" y="896" type="curve" smooth="yes"/>
      <point x="1210" y="343"/>
      <point x="871" y="-29"/>
      <point x="283" y="-29" type="curve"/>
      <point x="283" y="114" type="line"/>
      <point x="360" y="112" type="line" smooth="yes"/>
      <point x="656" y="104"/>
      <point x="910" y="327"/>
      <point x="961" y="695" type="curve"/>
      <point x="834" y="584"/>
      <point x="703" y="549"/>
      <point x="574" y="549" type="curve" smooth="yes"/>
      <point x="283" y="549"/>
      <point x="93" y="752"/>
      <point x="93" y="1028" type="curve" smooth="yes"/>
      <point x="93" y="1367"/>
      <point x="340" y="1598"/>
      <point x="653" y="1598" type="curve" smooth="yes"/>
      <point x="965" y="1598"/>
      <point x="1210" y="1404"/>
    </contour>
  </outline>
</glyph>
<glyph name="A" format="2">
  <advance width="1559"/>
  <unicode hex="0041"/>
  <outline>
    <contour>
      <point x="727" y="1300" type="line"/>
      <point x="502" y="693" type="line"/>
      <point x="954" y="693" type="line"/>
    </contour>
    <contour>
      <point x="998" y="8" type="line"/>
      <point x="998" y="107" type="line"/>
      <point x="1131" y="119" type="line"/>
      <point x="1146" y="119"/>
      <point x="1159" y="146"/>
      <point x="1155" y="158" type="curve" smooth="yes"/>
      <point x="996" y="582" type="line"/>
      <point x="461" y="582" type="line"/>
      <point x="307" y="165" type="line"/>
      <point x="302" y="146"/>
      <point x="324" y="119"/>
      <point x="340" y="119" type="curve"/>
      <point x="477" y="107" type="line"/>
      <point x="477" y="8" type="line"/>
      <point x="11" y="8" type="line"/>
      <point x="11" y="107" type="line"/>
      <point x="146" y="136" type="line"/>
      <point x="685" y="1598" type="line"/>
      <point x="859" y="1598" type="line"/>
      <point x="1396" y="170" type="line"/>
      <point x="1405" y="138"/>
      <point x="1409" y="131"/>
      <point x="1444" y="126" type="curve"/>
      <point x="1548" y="107" type="line"/>
      <point x="1548" y="8" type="line"/>
    </contour>
  </outline>
</glyph>
<glyph name="B" format="2">
  <advance width="1400"/>
  <unicode hex="0042"/>
  <outline>
    <contour>
      <point x="1058" y="448" type="curve" smooth="yes"/>
      <point x="1058" y="659"/>
      <point x="932" y="753"/>
      <point x="685" y="753" type="curve" smooth="yes"/>
      <point x="610" y="753"/>
      <point x="489" y="739"/>
      <point x="477" y="739" type="curve"/>
      <point x="477" y="128" type="line"/>
      <point x="496" y="127"/>
      <point x="514" y="125"/>
      <point x="532" y="124" type="curve" smooth="yes"/>
      <point x="563" y="121"/>
      <point x="597" y="121"/>
      <point x="620" y="121" type="curve" smooth="yes"/>
      <point x="944" y="121"/>
      <point x="1058" y="229"/>
    </contour>
    <contour>
      <point x="965" y="1172" type="curve" smooth="yes"/>
      <point x="965" y="1355"/>
      <point x="849" y="1454"/>
      <point x="609" y="1454" type="curve" smooth="yes"/>
      <point x="560" y="1454"/>
      <point x="493" y="1448"/>
      <point x="477" y="1448" type="curve"/>
      <point x="477" y="862" type="line"/>
      <point x="488" y="861"/>
      <point x="498" y="861"/>
      <point x="509" y="861" type="curve"/>
      <point x="526" y="860"/>
      <point x="547" y="860"/>
      <point x="560" y="860" type="curve" smooth="yes"/>
      <point x="861" y="860"/>
      <point x="965" y="973"/>
    </contour>
    <contour>
      <point x="1310" y="467" type="curve" smooth="yes"/>
      <point x="1310" y="91"/>
      <point x="966" y="8"/>
      <point x="722" y="8" type="curve" smooth="yes"/>
      <point x="75" y="8" type="line"/>
      <point x="75" y="107" type="line"/>
      <point x="197" y="116" type="line"/>
      <point x="229" y="120"/>
      <point x="245" y="144"/>
      <point x="245" y="167" type="curve" smooth="yes"/>
      <point x="245" y="1401" type="line" smooth="yes"/>
      <point x="245" y="1424"/>
      <point x="229" y="1449"/>
      <point x="197" y="1452" type="curve" smooth="yes"/>
      <point x="75" y="1461" type="line"/>
      <point x="75" y="1561" type="line"/>
      <point x="694" y="1561" type="line" smooth="yes"/>
      <point x="1062" y="1561"/>
      <point x="1215" y="1420"/>
      <point x="1215" y="1188" type="curve" smooth="yes"/>
      <point x="1215" y="958"/>
      <point x="1018" y="867"/>
      <point x="881" y="832" type="curve"/>
      <point x="1088" y="832"/>
      <point x="1310" y="739"/>
    </contour>
  </outline>
</glyph>
<glyph name="R" format="2">
  <advance width="1502"/>
  <unicode hex="0052"/>
  <outline>
    <contour>
      <point x="993" y="1139" type="curve" smooth="yes"/>
      <point x="993" y="1337"/>
      <point x="878" y="1448"/>
      <point x="585" y="1448" type="curve" smooth="yes"/>
      <point x="479" y="1448" type="line"/>
      <point x="479" y="814" type="line"/>
      <point x="486" y="814"/>
      <point x="560" y="811"/>
      <point x="594" y="811" type="curve" smooth="yes"/>
      <point x="852" y="811"/>
      <point x="993" y="892"/>
    </contour>
    <contour>
      <point x="1502" y="1" type="line"/>
      <point x="1481" y="-2"/>
      <point x="1419" y="-29"/>
      <point x="1349" y="-29" type="curve" smooth="yes"/>
      <point x="796" y="-29"/>
      <point x="1151" y="700"/>
      <point x="583" y="700" type="curve" smooth="yes"/>
      <point x="535" y="700"/>
      <point x="484" y="695"/>
      <point x="479" y="695" type="curve"/>
      <point x="479" y="167" type="line" smooth="yes"/>
      <point x="479" y="144"/>
      <point x="495" y="120"/>
      <point x="528" y="116" type="curve"/>
      <point x="650" y="107" type="line"/>
      <point x="650" y="8" type="line"/>
      <point x="75" y="8" type="line"/>
      <point x="75" y="107" type="line"/>
      <point x="194" y="116" type="line"/>
      <point x="227" y="120"/>
      <point x="245" y="144"/>
      <point x="245" y="167" type="curve" smooth="yes"/>
      <point x="245" y="1401" type="line" smooth="yes"/>
      <point x="245" y="1424"/>
      <point x="227" y="1449"/>
      <point x="194" y="1452" type="curve" smooth="yes"/>
      <point x="75" y="1461" type="line"/>
      <point x="75" y="1561" type="line"/>
      <point x="678" y="1561" type="line" smooth="yes"/>
      <point x="1030" y="1561"/>
      <point x="1245" y="1454"/>
      <point x="1245" y="1149" type="curve" smooth="yes"/>
      <point x="1245" y="905"/>
      <point x="1063" y="809"/>
      <point x="866" y="763" type="curve"/>
      <point x="1365" y="640"/>
      <point x="997" y="105"/>
      <point x="1502" y="105" type="curve"/>
    </contour>
  </outline>
</glyph>
<glyph name="underscore" format="2">
  <advance width="775"/>
  <unicode hex="005F"/>
  <outline>
    <contour>
      <point x="0" y="-337" type="line"/>
      <point x="0" y="-190" type="line"/>
      <point x="775" y="-190" type="line"/>
      <point x="775" y="-337" type="line"/>
    </contour>
  </outline>
</glyph>
<glyph name="c" format="2">
  <advance width="1078"/>
  <unicode hex="0063"/>
  <outline>
    <contour>
      <point x="1000" y="94" type="line"/>
      <point x="894" y="40"/>
      <point x="767" y="-20"/>
      <point x="609" y="-20" type="curve" smooth="yes"/>
      <point x="286" y="-20"/>
      <point x="79" y="226"/>
      <point x="79" y="558" type="curve" smooth="yes"/>
      <point x="79" y="947"/>
      <point x="340" y="1152"/>
      <point x="636" y="1152" type="curve" smooth="yes"/>
      <point x="839" y="1152"/>
      <point x="996" y="1068"/>
      <point x="996" y="920" type="curve" smooth="yes"/>
      <point x="996" y="829"/>
      <point x="926" y="783"/>
      <point x="859" y="783" type="curve" smooth="yes"/>
      <point x="807" y="783"/>
      <point x="771" y="804"/>
      <point x="742" y="823" type="curve"/>
      <point x="742" y="1024" type="line"/>
      <point x="711" y="1041"/>
      <point x="676" y="1054"/>
      <point x="645" y="1054" type="curve" smooth="yes"/>
      <point x="439" y="1054"/>
      <point x="315" y="857"/>
      <point x="315" y="589" type="curve" smooth="yes"/>
      <point x="315" y="331"/>
      <point x="446" y="126"/>
      <point x="698" y="126" type="curve" smooth="yes"/>
      <point x="807" y="126"/>
      <point x="900" y="159"/>
      <point x="1000" y="226" type="curve"/>
    </contour>
  </outline>
</glyph>
<glyph name="e" format="2">
  <advance width="1135"/>
  <unicode hex="0065"/>
  <outline>
    <contour>
      <point x="824" y="767" type="line" smooth="yes"/>
      <point x="824" y="921"/>
      <point x="753" y="1037"/>
      <point x="599" y="1037" type="curve" smooth="yes"/>
      <point x="444" y="1037"/>
      <point x="328" y="915"/>
      <point x="315" y="717" type="curve"/>
      <point x="824" y="717" type="line"/>
    </contour>
    <contour>
      <point x="1055" y="123" type="line"/>
      <point x="927" y="43"/>
      <point x="772" y="-20"/>
      <point x="616" y="-20" type="curve" smooth="yes"/>
      <point x="335" y="-20"/>
      <point x="79" y="167"/>
      <point x="79" y="554" type="curve" smooth="yes"/>
      <point x="79" y="915"/>
      <point x="307" y="1152"/>
      <point x="623" y="1152" type="curve" smooth="yes"/>
      <point x="910" y="1152"/>
      <point x="1055" y="952"/>
      <point x="1055" y="677" type="curve" smooth="yes"/>
      <point x="1055" y="661"/>
      <point x="1056" y="633"/>
      <point x="1053" y="613" type="curve"/>
      <point x="303" y="613" type="line"/>
      <point x="303" y="376"/>
      <point x="390" y="121"/>
      <point x="689" y="121" type="curve" smooth="yes"/>
      <point x="821" y="121"/>
      <point x="952" y="197"/>
      <point x="1055" y="265" type="curve"/>
    </contour>
  </outline>
</glyph>
<glyph name="j" format="2">
  <advance width="676"/>
  <unicode hex="006A"/>
  <outline>
    <contour>
      <point x="468" y="156" type="line" smooth="yes"/>
      <point x="468" y="19"/>
      <point x="456" y="-185"/>
      <point x="377" y="-307" type="curve" smooth="yes"/>
      <point x="282" y="-454"/>
      <point x="140" y="-522"/>
      <point x="-7" y="-522" type="curve" smooth="yes"/>
      <point x="-102" y="-522"/>
      <point x="-183" y="-483"/>
      <point x="-183" y="-394" type="curve" smooth="yes"/>
      <point x="-183" y="-317"/>
      <point x="-130" y="-277"/>
      <point x="-84" y="-261" type="curve"/>
      <point x="141" y="-416" type="line"/>
      <point x="227" y="-368"/>
      <point x="252" y="-218"/>
      <point x="252" y="-41" type="curve" smooth="yes"/>
      <point x="252" y="987" type="line"/>
      <point x="88" y="987" type="line"/>
      <point x="88" y="1063" type="line"/>
      <point x="373" y="1152" type="line"/>
      <point x="468" y="1152" type="line"/>
    </contour>
    <contour>
      <point x="493" y="1505" type="curve" smooth="yes"/>
      <point x="493" y="1426"/>
      <point x="431" y="1362"/>
      <point x="351" y="1362" type="curve" smooth="yes"/>
      <point x="274" y="1362"/>
      <point x="208" y="1426"/>
      <point x="208" y="1505" type="curve" smooth="yes"/>
      <point x="208" y="1585"/>
      <point x="274" y="1647"/>
      <point x="351" y="1647" type="curve" smooth="yes"/>
      <point x="431" y="1647"/>
      <point x="493" y="1585"/>
    </contour>
  </outline>
</glyph>
<glyph name="s" format="2">
  <advance width="921"/>
  <unicode hex="0073"/>
  <outline>
    <contour>
      <point x="842" y="344" type="curve" smooth="yes"/>
      <point x="842" y="115"/>
      <point x="676" y="-20"/>
      <point x="400" y="-20" type="curve" smooth="yes"/>
      <point x="257" y="-20"/>
      <point x="127" y="19"/>
      <point x="79" y="39" type="curve"/>
      <point x="79" y="346" type="line"/>
      <point x="197" y="346" type="line"/>
      <point x="225" y="149" type="line"/>
      <point x="272" y="120"/>
      <point x="340" y="85"/>
      <point x="431" y="85" type="curve" smooth="yes"/>
      <point x="562" y="85"/>
      <point x="638" y="171"/>
      <point x="638" y="265" type="curve" smooth="yes"/>
      <point x="638" y="395"/>
      <point x="535" y="434"/>
      <point x="356" y="522" type="curve" smooth="yes"/>
      <point x="187" y="605"/>
      <point x="95" y="675"/>
      <point x="95" y="816" type="curve" smooth="yes"/>
      <point x="95" y="1020"/>
      <point x="245" y="1152"/>
      <point x="512" y="1152" type="curve" smooth="yes"/>
      <point x="646" y="1152"/>
      <point x="764" y="1119"/>
      <point x="808" y="1098" type="curve"/>
      <point x="808" y="825" type="line"/>
      <point x="687" y="825" type="line"/>
      <point x="669" y="987" type="line"/>
      <point x="636" y="1012"/>
      <point x="565" y="1040"/>
      <point x="493" y="1040" type="curve" smooth="yes"/>
      <point x="365" y="1040"/>
      <point x="305" y="976"/>
      <point x="305" y="885" type="curve" smooth="yes"/>
      <point x="305" y="782"/>
      <point x="367" y="736"/>
      <point x="563" y="646" type="curve"/>
      <point x="723" y="575"/>
      <point x="842" y="493"/>
    </contour>
  </outline>
</glyph>
<glyph name="acute" format="2">
  <advance width="1007"/>
  <unicode hex="00B4"/>
  <outline>
    <contour>
      <point x="771" y="1293" type="line"/>
      <point x="740" y="1255"/>
      <point x="511" y="1019"/>
      <point x="341" y="770" type="curve"/>
      <point x="302" y="804"/>
      <point x="276" y="839"/>
      <point x="276" y="878" type="curve" smooth="yes"/>
      <point x="276" y="903"/>
      <point x="275" y="979"/>
      <point x="405" y="1007" type="curve"/>
      <point x="346" y="1152" type="line"/>
      <point x="168" y="1122"/>
      <point x="120" y="966"/>
      <point x="120" y="878" type="curve" smooth="yes"/>
      <point x="120" y="759"/>
      <point x="177" y="685"/>
      <point x="252" y="627" type="curve"/>
      <point x="195" y="524"/>
      <point x="157" y="425"/>
      <point x="157" y="344" type="curve" smooth="yes"/>
      <point x="157" y="123"/>
      <point x="289" y="-20"/>
      <point x="470" y="-20" type="curve" smooth="yes"/>
      <point x="635" y="-20"/>
      <point x="752" y="62"/>
      <point x="752" y="278" type="curve" smooth="yes"/>
      <point x="752" y="479"/>
      <point x="598" y="591"/>
      <point x="466" y="681" type="curve"/>
      <point x="626" y="914"/>
      <point x="857" y="1155"/>
      <point x="881" y="1188" type="curve"/>
    </contour>
    <contour>
      <point x="596" y="275" type="curve" smooth="yes"/>
      <point x="596" y="171"/>
      <point x="541" y="136"/>
      <point x="470" y="136" type="curve" smooth="yes"/>
      <point x="356" y="136"/>
      <point x="313" y="260"/>
      <point x="313" y="344" type="curve" smooth="yes"/>
      <point x="313" y="398"/>
      <point x="339" y="468"/>
      <point x="380" y="543" type="curve"/>
      <point x="491" y="476"/>
      <point x="596" y="411"/>
    </contour>
  </outline>
  <guideline angle="90" x="-1925" y="0"/>
  <guideline angle="90" x="-473" y="0"/>
</glyph>
<glyph name="paragraph" format="2">
  <advance width="946"/>
  <unicode hex="00B6"/>
  <outline>
    <contour>
      <point x="726" y="277" type="curve"/>
      <point x="722" y="500"/>
      <point x="557" y="583"/>
      <point x="428" y="666" type="curve"/>
      <point x="485" y="751"/>
      <point x="553" y="835"/>
      <point x="619" y="911" type="curve"/>
      <point x="635" y="895"/>
      <point x="649" y="878"/>
      <point x="660" y="862" type="curve"/>
      <point x="774" y="954" type="line"/>
      <point x="774" y="956"/>
      <point x="758" y="988"/>
      <point x="722" y="1026" type="curve"/>
      <point x="812" y="1123"/>
      <point x="881" y="1188"/>
      <point x="881" y="1188" type="curve"/>
      <point x="771" y="1294" type="line"/>
      <point x="757" y="1272"/>
      <point x="689" y="1205"/>
      <point x="603" y="1113" type="curve"/>
      <point x="556" y="1135"/>
      <point x="498" y="1151"/>
      <point x="428" y="1152" type="curve" smooth="yes"/>
      <point x="266" y="1153"/>
      <point x="116" y="1041"/>
      <point x="121" y="871" type="curve"/>
      <point x="131" y="754"/>
      <point x="171" y="677"/>
      <point x="223" y="621" type="curve"/>
      <point x="167" y="521"/>
      <point x="130" y="422"/>
      <point x="130" y="334" type="curve" smooth="yes"/>
      <point x="130" y="73"/>
      <point x="312" y="-20"/>
      <point x="443" y="-20" type="curve" smooth="yes"/>
      <point x="554" y="-20"/>
      <point x="726" y="23"/>
    </contour>
    <contour>
      <point x="570" y="274" type="curve" smooth="yes"/>
      <point x="570" y="180"/>
      <point x="524" y="136"/>
      <point x="443" y="136" type="curve" smooth="yes"/>
      <point x="359" y="136"/>
      <point x="286" y="220"/>
      <point x="286" y="334" type="curve" smooth="yes"/>
      <point x="286" y="390"/>
      <point x="308" y="456"/>
      <point x="344" y="527" type="curve"/>
      <point x="457" y="459"/>
      <point x="570" y="416"/>
    </contour>
    <contour>
      <point x="277" y="871" type="curve"/>
      <point x="277" y="981"/>
      <point x="402" y="996"/>
      <point x="438" y="996" type="curve"/>
      <point x="456" y="994"/>
      <point x="474" y="991"/>
      <point x="490" y="987" type="curve"/>
      <point x="430" y="917"/>
      <point x="368" y="841"/>
      <point x="312" y="763" type="curve"/>
      <point x="289" y="793"/>
      <point x="276" y="828"/>
    </contour>
  </outline>
  <guideline angle="0" x="0" y="1611"/>
  <guideline angle="90" x="-2000" y="0"/>
</glyph>
<glyph name="Agrave" format="2">
  <advance width="1364"/>
  <unicode hex="00C0"/>
  <anchor x="682" y="1260" name="U"/>
  <anchor x="682" y="-128" name="L"/>
  <outline>
    <contour>
      <point x="682" y="-20" type="curve" smooth="yes"/>
      <point x="964" y="-20"/>
      <point x="1244" y="200"/>
      <point x="1244" y="566" type="curve" smooth="yes"/>
      <point x="1244" y="914"/>
      <point x="988" y="1152"/>
      <point x="682" y="1152" type="curve" smooth="yes"/>
      <point x="446" y="1152"/>
      <point x="212" y="1034"/>
      <point x="120" y="816" type="curve"/>
      <point x="253" y="735" type="line"/>
      <point x="347" y="909"/>
      <point x="528" y="998"/>
      <point x="682" y="998" type="curve" smooth="yes"/>
      <point x="936" y="998"/>
      <point x="1088" y="802"/>
      <point x="1088" y="566" type="curve" smooth="yes"/>
      <point x="1088" y="330"/>
      <point x="886" y="134"/>
      <point x="682" y="134" type="curve" smooth="yes"/>
      <point x="528" y="134"/>
      <point x="347" y="223"/>
      <point x="253" y="397" type="curve"/>
      <point x="120" y="316" type="line"/>
      <point x="212" y="98"/>
      <point x="446" y="-20"/>
    </contour>
  </outline>
</glyph>
<glyph name="Atilde" format="2">
  <advance width="1400"/>
  <unicode hex="00C3"/>
  <anchor x="700" y="1260" name="U"/>
  <anchor x="700" y="-128" name="L"/>
  <outline>
    <contour>
      <point x="700" y="136" type="curve" smooth="yes"/>
      <point x="458" y="136"/>
      <point x="276" y="334"/>
      <point x="276" y="568" type="curve" smooth="yes"/>
      <point x="276" y="722"/>
      <point x="352" y="998"/>
      <point x="472" y="998" type="curve" smooth="yes"/>
      <point x="582" y="998"/>
      <point x="558" y="702"/>
      <point x="700" y="702" type="curve" smooth="yes"/>
      <point x="842" y="702"/>
      <point x="818" y="998"/>
      <point x="928" y="998" type="curve" smooth="yes"/>
      <point x="1048" y="998"/>
      <point x="1124" y="722"/>
      <point x="1124" y="568" type="curve" smooth="yes"/>
      <point x="1124" y="326"/>
      <point x="922" y="136"/>
    </contour>
    <contour>
      <point x="120" y="568" type="curve" smooth="yes"/>
      <point x="120" y="254"/>
      <point x="378" y="-20"/>
      <point x="700" y="-20" type="curve" smooth="yes"/>
      <point x="1000" y="-20"/>
      <point x="1280" y="246"/>
      <point x="1280" y="568" type="curve" smooth="yes"/>
      <point x="1280" y="838"/>
      <point x="1140" y="1154"/>
      <point x="928" y="1154" type="curve" smooth="yes"/>
      <point x="768" y="1154"/>
      <point x="720" y="1038"/>
      <point x="700" y="918" type="curve"/>
      <point x="680" y="1038"/>
      <point x="632" y="1154"/>
      <point x="472" y="1154" type="curve" smooth="yes"/>
      <point x="260" y="1154"/>
      <point x="120" y="838"/>
    </contour>
  </outline>
</glyph>
<glyph name="multiply" format="2">
  <advance width="1360"/>
  <unicode hex="00D7"/>
  <anchor x="680" y="-128" name="L"/>
  <anchor x="680" y="1260" name="U"/>
  <outline>
    <contour>
      <point x="1084" y="566" type="curve" smooth="yes"/>
      <point x="1084" y="330"/>
      <point x="912" y="136"/>
      <point x="680" y="136" type="curve" smooth="yes"/>
      <point x="448" y="136"/>
      <point x="276" y="330"/>
      <point x="276" y="566" type="curve" smooth="yes"/>
      <point x="276" y="802"/>
      <point x="456" y="996"/>
      <point x="680" y="996" type="curve" smooth="yes"/>
      <point x="920" y="996"/>
      <point x="1084" y="802"/>
    </contour>
    <contour>
      <point x="120" y="566" type="curve" smooth="yes"/>
      <point x="120" y="244"/>
      <point x="366" y="-20"/>
      <point x="680" y="-20" type="curve"/>
      <point x="994" y="-20"/>
      <point x="1240" y="244"/>
      <point x="1240" y="566" type="curve" smooth="yes"/>
      <point x="1240" y="886"/>
      <point x="1002" y="1152"/>
      <point x="680" y="1152" type="curve" smooth="yes"/>
      <point x="374" y="1152"/>
      <point x="120" y="886"/>
    </contour>
    <contour>
      <point x="680" y="718" type="curve" smooth="yes"/>
      <point x="608" y="718"/>
      <point x="536" y="656"/>
      <point x="536" y="566" type="curve" smooth="yes"/>
      <point x="536" y="476"/>
      <point x="608" y="414"/>
      <point x="680" y="414" type="curve" smooth="yes"/>
      <point x="754" y="414"/>
      <point x="820" y="476"/>
      <point x="820" y="566" type="curve" smooth="yes"/>
      <point x="820" y="656"/>
      <point x="754" y="718"/>
    </contour>
  </outline>
</glyph>
<glyph name="Uacute" format="2">
  <unicode hex="00DA"/>
  <outline>
    <contour>
      <point x="-696" y="1554" type="curve" smooth="yes"/>
      <point x="-696" y="1671"/>
      <point x="-603" y="1794"/>
      <point x="-454" y="1794" type="curve" smooth="yes"/>
      <point x="-316" y="1794"/>
      <point x="-208" y="1670"/>
      <point x="-212" y="1552" type="curve"/>
      <point x="-208" y="1434"/>
      <point x="-316" y="1311"/>
      <point x="-454" y="1311" type="curve" smooth="yes"/>
      <point x="-1151" y="1311" type="line"/>
      <point x="-1151" y="1431" type="line"/>
      <point x="-658" y="1431" type="line"/>
      <point x="-681" y="1467"/>
      <point x="-696" y="1510"/>
    </contour>
    <contour>
      <point x="-329" y="1554" type="curve" smooth="yes"/>
      <point x="-329" y="1623"/>
      <point x="-389" y="1678"/>
      <point x="-454" y="1678" type="curve" smooth="yes"/>
      <point x="-521" y="1678"/>
      <point x="-578" y="1623"/>
      <point x="-578" y="1554" type="curve" smooth="yes"/>
      <point x="-578" y="1504"/>
      <point x="-535" y="1430"/>
      <point x="-454" y="1430" type="curve" smooth="yes"/>
      <point x="-389" y="1430"/>
      <point x="-329" y="1482"/>
    </contour>
  </outline>
</glyph>
<glyph name="Udieresis" format="2">
  <advance width="1388"/>
  <unicode hex="00DC"/>
  <anchor x="704" y="1220" name="U"/>
  <anchor x="704" y="-168" name="L"/>
  <outline>
    <contour>
      <point x="1268" y="388" type="curve"/>
      <point x="1260" y="210"/>
      <point x="1090" y="-60"/>
      <point x="704" y="-60" type="curve" smooth="yes"/>
      <point x="382" y="-60"/>
      <point x="120" y="204"/>
      <point x="120" y="526" type="curve" smooth="yes"/>
      <point x="120" y="844"/>
      <point x="382" y="1112"/>
      <point x="704" y="1112" type="curve" smooth="yes"/>
      <point x="920" y="1112"/>
      <point x="1156" y="994"/>
      <point x="1248" y="776" type="curve"/>
      <point x="1114" y="696" type="line"/>
      <point x="1020" y="870"/>
      <point x="888" y="956"/>
      <point x="704" y="956" type="curve" smooth="yes"/>
      <point x="432" y="956"/>
      <point x="276" y="718"/>
      <point x="276" y="526" type="curve" smooth="yes"/>
      <point x="276" y="418"/>
      <point x="317" y="311"/>
      <point x="363" y="267" type="curve"/>
      <point x="471" y="391"/>
      <point x="580" y="466"/>
      <point x="676" y="498" type="curve" smooth="yes"/>
      <point x="856" y="558"/>
      <point x="1112" y="522"/>
    </contour>
    <contour>
      <point x="486" y="157" type="curve"/>
      <point x="549" y="109"/>
      <point x="624" y="96"/>
      <point x="704" y="96" type="curve" smooth="yes"/>
      <point x="812" y="96"/>
      <point x="1005" y="133"/>
      <point x="1093" y="317" type="curve"/>
      <point x="1031" y="367"/>
      <point x="860" y="402"/>
      <point x="720" y="348" type="curve" smooth="yes"/>
      <point x="648" y="320"/>
      <point x="548" y="257"/>
    </contour>
  </outline>
</glyph>
<glyph name="Yacute" format="2">
  <advance width="981"/>
  <unicode hex="00DD"/>
  <anchor x="626" y="1260" name="U"/>
  <anchor x="626" y="-128" name="L"/>
  <outline>
    <contour>
      <point x="115" y="945" type="line"/>
      <point x="162" y="1021"/>
      <point x="265" y="1152"/>
      <point x="477" y="1152" type="curve" smooth="yes"/>
      <point x="723" y="1152"/>
      <point x="863" y="1004"/>
      <point x="860" y="786" type="curve" smooth="yes"/>
      <point x="857" y="550"/>
      <point x="547" y="497"/>
      <point x="547" y="307" type="curve" smooth="yes"/>
      <point x="547" y="191"/>
      <point x="560" y="103"/>
      <point x="630" y="5" type="curve"/>
      <point x="493" y="-70" type="line"/>
      <point x="445" y="-5"/>
      <point x="391" y="121"/>
      <point x="391" y="307" type="curve" smooth="yes"/>
      <point x="391" y="564"/>
      <point x="704" y="657"/>
      <point x="704" y="786" type="curve" smooth="yes"/>
      <point x="704" y="912"/>
      <point x="641" y="996"/>
      <point x="477" y="996" type="curve"/>
      <point x="391" y="996"/>
      <point x="293" y="957"/>
      <point x="241" y="859" type="curve"/>
    </contour>
  </outline>
</glyph>
<glyph name="germandbls" format="2">
  <unicode hex="00DF"/>
  <outline>
    <contour>
      <point x="-906" y="1545" type="curve" smooth="yes"/>
      <point x="-906" y="1417"/>
      <point x="-808" y="1311"/>
      <point x="-682" y="1311" type="curve" smooth="yes"/>
      <point x="-556" y="1311"/>
      <point x="-458" y="1417"/>
      <point x="-458" y="1545" type="curve" smooth="yes"/>
      <point x="-458" y="1673"/>
      <point x="-553" y="1780"/>
      <point x="-682" y="1780" type="curve"/>
      <point x="-804" y="1780"/>
      <point x="-906" y="1673"/>
    </contour>
    <contour>
      <point x="-575" y="1545" type="curve" smooth="yes"/>
      <point x="-575" y="1481"/>
      <point x="-626" y="1432"/>
      <point x="-682" y="1432" type="curve" smooth="yes"/>
      <point x="-736" y="1432"/>
      <point x="-787" y="1481"/>
      <point x="-787" y="1545" type="curve" smooth="yes"/>
      <point x="-787" y="1610"/>
      <point x="-734" y="1658"/>
      <point x="-682" y="1658" type="curve" smooth="yes"/>
      <point x="-625" y="1658"/>
      <point x="-575" y="1610"/>
    </contour>
  </outline>
</glyph>
<glyph name="ae" format="2">
  <unicode hex="00E6"/>
  <outline>
    <contour>
      <point x="-622" y="-362" type="curve" smooth="yes"/>
      <point x="-622" y="-446"/>
      <point x="-687" y="-533"/>
      <point x="-794" y="-533" type="curve" smooth="yes"/>
      <point x="-892" y="-533"/>
      <point x="-969" y="-445"/>
      <point x="-967" y="-361" type="curve"/>
      <point x="-969" y="-277"/>
      <point x="-892" y="-190"/>
      <point x="-794" y="-190" type="curve" smooth="yes"/>
      <point x="-396" y="-190" type="line"/>
      <point x="-396" y="-275" type="line"/>
      <point x="-648" y="-275" type="line"/>
      <point x="-632" y="-301"/>
      <point x="-622" y="-331"/>
    </contour>
    <contour>
      <point x="-883" y="-362" type="curve" smooth="yes"/>
      <point x="-883" y="-412"/>
      <point x="-840" y="-451"/>
      <point x="-794" y="-451" type="curve" smooth="yes"/>
      <point x="-746" y="-451"/>
      <point x="-706" y="-412"/>
      <point x="-706" y="-362" type="curve" smooth="yes"/>
      <point x="-706" y="-326"/>
      <point x="-735" y="-275"/>
      <point x="-794" y="-275" type="curve" smooth="yes"/>
      <point x="-840" y="-275"/>
      <point x="-883" y="-311"/>
    </contour>
    <contour>
      <point x="-622" y="-731" type="curve" smooth="yes"/>
      <point x="-622" y="-815"/>
      <point x="-687" y="-902"/>
      <point x="-794" y="-902" type="curve" smooth="yes"/>
      <point x="-892" y="-902"/>
      <point x="-969" y="-814"/>
      <point x="-967" y="-730" type="curve"/>
      <point x="-969" y="-646"/>
      <point x="-892" y="-559"/>
      <point x="-794" y="-559" type="curve" smooth="yes"/>
      <point x="-396" y="-559" type="line"/>
      <point x="-396" y="-644" type="line"/>
      <point x="-648" y="-644" type="line"/>
      <point x="-632" y="-670"/>
      <point x="-622" y="-700"/>
    </contour>
    <contour>
      <point x="-883" y="-731" type="curve" smooth="yes"/>
      <point x="-883" y="-781"/>
      <point x="-840" y="-820"/>
      <point x="-794" y="-820" type="curve" smooth="yes"/>
      <point x="-746" y="-820"/>
      <point x="-706" y="-781"/>
      <point x="-706" y="-731" type="curve" smooth="yes"/>
      <point x="-706" y="-695"/>
      <point x="-735" y="-644"/>
      <point x="-794" y="-644" type="curve" smooth="yes"/>
      <point x="-840" y="-644"/>
      <point x="-883" y="-680"/>
    </contour>
  </outline>
</glyph>
<glyph name="egrave" format="2">
  <unicode hex="00E8"/>
  <outline>
    <contour>
      <point x="-399" y="1311" type="line"/>
      <point x="-1046" y="1877" type="line"/>
      <point x="-962" y="1964" type="line"/>
      <point x="-317" y="1399" type="line"/>
    </contour>
  </outline>
</glyph>
<glyph name="eth" format="2">
  <advance width="1670"/>
  <unicode hex="00F0"/>
  <outline>
    <contour>
      <point x="1550" y="970" type="line"/>
      <point x="882" y="796"/>
      <point x="554" y="284"/>
      <point x="554" y="0" type="curve"/>
      <point x="382" y="0" type="line"/>
      <point x="120" y="688" type="line"/>
      <point x="259" y="758" type="line"/>
      <point x="454" y="257" type="line"/>
      <point x="568" y="623"/>
      <point x="1046" y="1007"/>
      <point x="1490" y="1114" type="curve"/>
    </contour>
  </outline>
</glyph>
<glyph name="Ntilde_alt" format="2">
  <advance width="1180"/>
  <outline>
    <contour>
      <point x="313" y="701" type="curve"/>
      <point x="317" y="692"/>
      <point x="316" y="682"/>
      <point x="316" y="677" type="curve" smooth="yes"/>
      <point x="316" y="653"/>
      <point x="299" y="638"/>
      <point x="278" y="638" type="curve" smooth="yes"/>
      <point x="259" y="638"/>
      <point x="241" y="653"/>
      <point x="241" y="677" type="curve" smooth="yes"/>
      <point x="241" y="700"/>
      <point x="259" y="722"/>
      <point x="276" y="736" type="curve" smooth="yes"/>
      <point x="581" y="993" type="line"/>
      <point x="620" y="818"/>
      <point x="831" y="583"/>
      <point x="1060" y="583" type="curve"/>
      <point x="1060" y="703" type="line"/>
      <point x="868" y="714"/>
      <point x="678" y="935"/>
      <point x="687" y="1097" type="curve"/>
      <point x="572" y="1153" type="line"/>
      <point x="515" y="1099"/>
      <point x="333" y="958"/>
      <point x="167" y="802" type="curve" smooth="yes"/>
      <point x="132" y="769"/>
      <point x="120" y="706"/>
      <point x="120" y="676" type="curve" smooth="yes"/>
      <point x="120" y="603"/>
      <point x="173" y="519"/>
      <point x="278" y="519" type="curve" smooth="yes"/>
      <point x="365" y="519"/>
      <point x="436" y="594"/>
      <point x="436" y="677" type="curve" smooth="yes"/>
      <point x="436" y="707"/>
      <point x="434" y="724"/>
      <point x="413" y="760" type="curve"/>
      <point x="413" y="760"/>
      <point x="314" y="701"/>
    </contour>
    <contour>
      <point x="313" y="162" type="curve"/>
      <point x="317" y="153"/>
      <point x="316" y="143"/>
      <point x="316" y="138" type="curve" smooth="yes"/>
      <point x="316" y="114"/>
      <point x="299" y="99"/>
      <point x="278" y="99" type="curve" smooth="yes"/>
      <point x="259" y="99"/>
      <point x="241" y="114"/>
      <point x="241" y="138" type="curve" smooth="yes"/>
      <point x="241" y="161"/>
      <point x="259" y="183"/>
      <point x="276" y="197" type="curve" smooth="yes"/>
      <point x="581" y="454" type="line"/>
      <point x="620" y="279"/>
      <point x="831" y="44"/>
      <point x="1060" y="44" type="curve"/>
      <point x="1060" y="164" type="line"/>
      <point x="868" y="175"/>
      <point x="678" y="396"/>
      <point x="687" y="558" type="curve"/>
      <point x="572" y="614" type="line"/>
      <point x="515" y="560"/>
      <point x="333" y="419"/>
      <point x="167" y="263" type="curve" smooth="yes"/>
      <point x="132" y="230"/>
      <point x="120" y="167"/>
      <point x="120" y="137" type="curve" smooth="yes"/>
      <point x="120" y="64"/>
      <point x="173" y="-20"/>
      <point x="278" y="-20" type="curve" smooth="yes"/>
      <point x="365" y="-20"/>
      <point x="436" y="55"/>
      <point x="436" y="138" type="curve" smooth="yes"/>
      <point x="436" y="168"/>
      <point x="434" y="185"/>
      <point x="413" y="221" type="curve"/>
      <point x="413" y="221"/>
      <point x="314" y="162"/>
    </contour>
  </outline>
</glyph>
